<svg id="Capa_1" data-name="Capa 1" xmlns="http://www.w3.org/2000/svg" viewBox="0 0 512 512"><!-- This is an icon of Baoshuo's Blog --><path d="M512,256A255.7763,255.7763,0,0,1,256,512a257.7042,257.7042,0,0,1-48.765-4.639A255.8333,255.8333,0,0,1,0,256,255.9772,255.9772,0,0,1,256,0,255.3541,255.3541,0,0,1,439.86,77.887q8.229,8.48,15.653,17.701c1.588,1.975,3.145,3.96,4.671,5.987A255.5071,255.5071,0,0,1,512,256Z" style="fill:#5897d1"/><path d="M450.39,194.39A194.22,194.22,0,0,1,256,388.779a195.7156,195.7156,0,0,1-37.029-3.522A194.2627,194.2627,0,0,1,61.609,194.391C61.61,87.031,148.641,0,256,0S450.39,87.031,450.39,194.39Z" style="fill:#9fc5e6"/><path d="M449.912,26.311V79.475a12.6014,12.6014,0,0,1-12.601,12.601H348.526V13.709h88.785A12.6023,12.6023,0,0,1,449.912,26.311Z" style="fill:#ff668c"/><path d="M343.813,496.535A255.244,255.244,0,0,1,256,512C152.44,512,63.237,450.508,22.925,362.036l80.572-107.165a36.6616,36.6616,0,0,1,58.608,0l45.881,61.032Z" style="fill:#343a6e"/><path d="M437.812,43.102a9.7909,9.7909,0,0,1-9.791,9.791H393.968a9.796,9.796,0,0,0,0,19.592h11.755a9.796,9.796,0,1,1,0,19.592H348.525V13.709h55.8079a9.792,9.792,0,0,1,9.7911,9.801,9.793,9.793,0,0,0,9.801,9.791h4.096A9.7988,9.7988,0,0,1,437.812,43.102Z" style="fill:#ef487d"/><path d="M342.523.001h0a8.62,8.62,0,0,0-8.62,8.62V225.295h17.24V8.621A8.6209,8.6209,0,0,0,342.523.001Z" style="fill:#f9df73"/><path d="M492.189,354.889q-3.417,8.1345-7.367,15.987A256.4126,256.4126,0,0,1,207.235,507.361a254.9738,254.9738,0,0,1-97.834-41.472l198.081-263.45a43.8314,43.8314,0,0,1,70.081,0Z" style="fill:#484b7f"/><path d="M342.528,184.936c-6.719,0-13.437,5.831-17.93,17.502L207.235,507.361a254.5431,254.5431,0,0,1-97.834-41.472l198.092-263.45A43.5532,43.5532,0,0,1,342.528,184.936Z" style="fill:#343a6e"/><path d="M484.822,370.876A256.4126,256.4126,0,0,1,207.235,507.361a254.1167,254.1167,0,0,1-70.771-24.931L266.502,353.396c-20.25,52.611,37.136,66.247,96.695,44.304C417.844,377.563,423.664,356.101,484.822,370.876Z" style="fill:#343a6e"/><path d="M207.987,315.904c-30.511,1.055-60.615,19.101-79.882,19.101-29.78,0-64.993-26.415-24.607-80.133a36.6616,36.6616,0,0,1,58.608,0Z" style="fill:#484b7f"/></svg>