<svg width="180" height="69" xmlns="http://www.w3.org/2000/svg">
    <metadata id="metadata25">image/svg+xml</metadata>
    <g>
        <title>background</title>
        <rect x="-1" y="-1" width="182" height="71" id="canvas_background" fill="none" />
    </g>
    <g>
        <title>Layer 1</title>
        <g stroke="null" id="id__12589826">
            <g stroke="null" id="text2" fill="currentColor" font-family="IDPinocchio" font-size="40px">
                <path stroke="null" id="path27"
                    d="m40.502113,45.691685l2.958147,0q0.570245,0 0.641526,0.580326l0.03564,2.430117q0,0.253893 -0.178202,0.435245q-0.142561,0.181352 -0.427684,0.181352l-23.843379,0.616597q-0.249482,0 -0.427684,-0.181352q-0.178202,-0.145082 -0.178202,-0.398974l-0.071281,-3.082984q0,-0.253893 0.178202,-0.435245q0.178202,-0.181352 0.427684,-0.181352l9.195205,0.03627l0.106921,-4.098555l-7.62703,0q-0.249482,0 -0.427684,-0.145082q-0.178202,-0.181352 -0.178202,-0.471515l-0.03564,-2.72028q-0.03564,-0.253893 0.142561,-0.435245q0.178202,-0.181352 0.427684,-0.181352l7.769591,-0.181352l0.071281,-3.191795l-8.589319,0.326434q-0.249482,0.03627 -0.427684,-0.108811q-0.178202,-0.181352 -0.178202,-0.471515l-0.142561,-3.119254q0,-0.253893 0.142561,-0.435245q0.178202,-0.181352 0.463324,-0.181352l21.990082,-0.072541q0.570245,0 0.641526,0.580326l0.071281,2.357576q0.03564,0.253893 -0.142561,0.435245q-0.178202,0.181352 -0.427684,0.181352l-8.838801,0.326434l0.106921,3.228065l7.947793,-0.217622q0.249482,0 0.427684,0.181352q0.178202,0.145082 0.178202,0.398974l0.03564,3.264336q0,0.616597 -0.570245,0.616597l-2.637384,0.03627l2.387902,2.285035q0.249482,0.253893 0.249482,0.580326q0,0.290163 -0.285123,0.471515l-0.962289,0.761678zm-0.285123,-16.684382q-0.285123,0 -0.463324,-0.217622q-0.178202,-0.253893 -0.106921,-0.580326l0.249482,-1.051842q0.071281,-0.326434 -0.106921,-0.544056q-0.142561,-0.253893 -0.427684,-0.217622l-15.325341,0.544056q-0.285123,0.03627 -0.463324,0.290163q-0.178202,0.217622 -0.142561,0.544056l0.071281,0.761678q0.071281,0.326434 -0.142561,0.580326q-0.178202,0.217622 -0.463324,0.217622l-4.134278,0q-0.285123,0 -0.498965,-0.217622q-0.213842,-0.253893 -0.178202,-0.580326l0.285123,-4.642611q0.03564,-0.326434 0.249482,-0.544056q0.213842,-0.253893 0.498965,-0.253893l9.480327,0l-1.176131,-2.103683q-0.178202,-0.290163 -0.071281,-0.616597q0.106921,-0.326434 0.392044,-0.507786l1.746376,-1.160653q0.285123,-0.181352 0.641526,-0.108811q0.356403,0.072541 0.605886,0.326434l3.528392,3.264336q0.392044,0.471515 0.03564,0.90676l9.159564,-0.03627q0.285123,0 0.498965,0.253893q0.249482,0.217622 0.285123,0.544056l0.392044,4.424988q0.03564,0.326434 -0.178202,0.580326q-0.178202,0.217622 -0.498965,0.217622l-3.742234,-0.072541zm-3.956076,14.435618q-0.178202,-0.290163 -0.142561,-0.616597q0.071281,-0.362704 0.356403,-0.544056l1.03357,-0.689138l-3.635313,0l0.142561,4.098555l3.635313,0l-1.389973,-2.248765z"
                    fill="currentColor" />
            </g>
            <g stroke="null" id="text4" fill="currentColor" font-family="IDPinocchio" font-size="40px">
                <path stroke="null" id="path30"
                    d="m67.744688,46.888608q0,0.290163 -0.213842,0.435245q-0.178202,0.181352 -0.463324,0.181352l-7.128066,0.072541q-0.285123,-0.03627 -0.463324,-0.217622q-0.178202,-0.181352 -0.178202,-0.435245l-0.178202,-9.720466l-1.247411,1.559627q-0.178202,0.181352 -0.463324,0.217622q-0.249482,0 -0.463324,-0.217622l-2.245341,-1.668438q-0.213842,-0.181352 -0.213842,-0.435245q0,-0.253893 0.178202,-0.471515q1.354332,-1.668438 2.316621,-3.119254q0.962289,-1.487086 1.639455,-2.865361q0.677166,-1.378275 1.10485,-2.684009q0.463324,-1.305734 0.748447,-2.684009l-2.530463,0.181352q-0.677166,0 -0.677166,-0.689138l-0.071281,-2.865361q0,-0.290163 0.213842,-0.471515q0.213842,-0.181352 0.498965,-0.181352l9.337766,0.108811q0.285123,0 0.463324,0.217622q0.178202,0.181352 0.178202,0.471515l0.03564,2.103683q0,0.290163 -0.213842,0.471515q-0.213842,0.181352 -0.498965,0.181352l-2.922507,0.217622q-0.249482,1.487086 -0.641526,3.010443q-0.356403,1.487086 -0.962289,3.119254l4.811444,-0.108811q0.285123,-0.03627 0.463324,0.145082q0.178202,0.181352 0.142561,0.471515l-0.356403,15.668811zm16.644033,-5.47683q0,0.507786 -0.570245,0.507786l-3.029428,0q-0.249482,0 -0.392044,-0.145082q-0.142561,-0.181352 -0.142561,-0.398974l0.392044,-10.699767q0.03564,-0.217622 -0.213842,-0.362704q-0.249482,-0.145082 -0.498965,-0.108811l-6.700382,0.290163q-0.498965,0.072541 -0.427684,0.580326l0.285123,10.373333q0.03564,0.253893 -0.142561,0.398974q-0.142561,0.145082 -0.392044,0.145082l-2.993788,0q-0.570245,0 -0.570245,-0.544056l0.463324,-13.528858q0,-0.217622 0.142561,-0.362704q0.178202,-0.181352 0.427684,-0.181352l4.775804,-0.03627q-0.106921,-0.181352 -0.03564,-0.471515l0.570245,-2.72028l-5.346049,0.253893q-0.285123,0 -0.463324,-0.217622q-0.178202,-0.253893 -0.178202,-0.544056l-0.03564,-2.611469q0,-0.290163 0.178202,-0.471515q0.213842,-0.217622 0.498965,-0.181352l14.14921,0.03627q0.285123,0 0.427684,0.253893q0.178202,0.217622 0.178202,0.507786l0.03564,1.84979q0,0.290163 -0.285123,0.507786q-0.285123,0.217622 -0.570245,0.217622l-5.167848,0.253893l-0.392044,3.300606l5.132207,-0.072541q0.213842,0 0.356403,0.145082q0.178202,0.145082 0.178202,0.362704l0.356403,13.67394zm-6.664741,-10.300793q0.570245,0.072541 0.570245,0.652867q0,2.538928 0.03564,4.461259q0.03564,1.922331 -0.071281,3.481958q-0.106921,1.559627 -0.427684,2.792821q-0.320763,1.233193 -1.03357,2.393846q-0.712807,1.160653 -1.924578,2.321305q-1.176131,1.124382 -2.993788,2.430117q-0.712807,0.507786 -1.14049,0l-1.995858,-2.430117q-0.178202,-0.181352 -0.142561,-0.435245q0.03564,-0.290163 0.356403,-0.471515q1.425613,-0.834219 2.423542,-1.559627q0.997929,-0.761678 1.639455,-1.595897q0.641526,-0.834219 0.962289,-1.81352q0.356403,-1.015571 0.498965,-2.321305q0.178202,-1.342005 0.178202,-3.082984q0.03564,-1.777249 0.03564,-4.134825q0,-0.290163 0.178202,-0.507786q0.178202,-0.217622 0.427684,-0.217622l2.423542,0.03627zm5.773733,18.461632q-0.213842,0.253893 -0.498965,0.253893q-0.285123,0.03627 -0.498965,-0.181352l-4.811444,-4.787692q-0.213842,-0.253893 -0.213842,-0.580326q0,-0.326434 0.178202,-0.544056l1.176131,-1.378275q0.213842,-0.253893 0.534605,-0.253893q0.320763,-0.03627 0.570245,0.145082l5.203488,4.134825q0.285123,0.181352 0.285123,0.507786q0.03564,0.290163 -0.142561,0.507786l-1.782016,2.176224zm-19.56654,-4.316177q0.249482,0 0.427684,-0.181352q0.178202,-0.181352 0.213842,-0.471515l0,-10.808578q0,-0.616597 -0.605886,-0.544056l-0.784087,0q-0.285123,0.03627 -0.463324,0.181352q-0.178202,0.145082 -0.178202,0.435245l-0.03564,10.772308q0,0.290163 0.178202,0.471515q0.178202,0.181352 0.463324,0.181352l0.784087,-0.03627z"
                    fill="currentColor" />
            </g>
            <g stroke="null" id="text6" fill="currentColor" font-family="IDPinocchio" font-size="40px">
                <path stroke="null" id="path33"
                    d="m105.109117,23.276579q0,-0.544056 0.570245,-0.616597l6.201417,-0.108811l-0.03564,-2.103683q0,-0.471515 0.463324,-0.471515l3.24327,0.03627q0.463324,0 0.463324,0.471515l-0.071281,1.958601l1.176131,0l-0.356403,-1.233193q-0.178202,-0.580326 0.392044,-0.797949l1.318692,-0.544056q0.285123,-0.108811 0.534605,0q0.249482,0.072541 0.392044,0.326434l1.568174,2.139953l1.496894,-0.03627q0.498965,-0.03627 0.570245,0.471515l0.071281,2.647739q0,0.544056 -0.534605,0.544056l-6.700382,-0.03627l-0.03564,1.051842l5.809373,-0.072541q0.285123,-0.03627 0.463324,0.181352q0.178202,0.181352 0.178202,0.471515l0.178202,10.98993q0,0.616597 -0.534605,0.616597l-2.922507,0.03627q-0.534605,-0.03627 -0.534605,-0.616597l0,-0.326434l-2.886867,-0.03627l0,1.088112q0,0.471515 -0.498965,0.471515l-2.387902,0.03627q-0.427684,0 -0.498965,-0.507786l-0.03564,-1.160653l-3.20763,-0.072541l0.03564,0.471515q0.03564,0.544056 -0.534605,0.544056l-2.779946,0q-0.570245,0 -0.570245,-0.689138l0.320763,-10.627226q0,-0.290163 0.178202,-0.471515q0.178202,-0.181352 0.463324,-0.181352l5.880654,-0.072541l0,-1.160653l-6.130136,-0.03627q-0.570245,0 -0.641526,-0.580326l-0.071281,-1.994872zm-2.459183,7.653054l0.320763,18.098928q0.03564,0.290163 -0.142561,0.471515q-0.178202,0.181352 -0.427684,0.181352l-3.492752,0.03627q-0.249482,0 -0.427684,-0.181352q-0.142561,-0.181352 -0.142561,-0.471515l0.213842,-17.772494l-1.746376,0.145082q-0.285123,0.03627 -0.498965,-0.181352q-0.178202,-0.217622 -0.178202,-0.507786l0,-2.538928q0,-0.290163 0.178202,-0.507786q0.213842,-0.217622 0.498965,-0.217622l1.782016,0.03627l0.106921,-6.927646q0,-0.290163 0.178202,-0.435245q0.178202,-0.181352 0.427684,-0.181352l2.637384,0q0.249482,0 0.392044,0.181352q0.178202,0.181352 0.178202,0.471515l0.106921,6.891375l1.03357,0q0.285123,0 0.463324,0.217622q0.213842,0.217622 0.213842,0.507786l0.071281,1.81352q0,0.290163 -0.213842,0.544056q-0.178202,0.217622 -0.463324,0.217622l-1.06921,0.108811zm16.608393,8.305921q0.570245,0 0.641526,0.580326q0,0.362704 0.03564,0.544056l3.136349,-0.072541q0.534605,-0.03627 0.534605,0.471515l0,2.393846q0,0.544056 -0.534605,0.544056l-2.993788,0q0.071281,1.414545 0.071281,2.865361q0.03564,1.450816 0.03564,2.72028q-0.03564,0.725408 -0.534605,0.725408l-3.670954,-0.03627q-0.534605,0 -0.427684,-0.761678q0.178202,-1.269464 0.320763,-2.72028q0.178202,-1.450816 0.285123,-2.829091l-11.618747,-0.108811q-0.249482,0 -0.427684,-0.145082q-0.178202,-0.181352 -0.213842,-0.398974l-0.071281,-1.740979q0,-0.580326 0.570245,-0.580326l11.97515,-0.253893l0,-0.471515q0,-0.689138 0.534605,-0.689138l2.352262,-0.03627zm-6.664741,9.756737q-0.106921,0.217622 -0.356403,0.290163q-0.213842,0.072541 -0.427684,-0.108811l-4.704523,-2.901632q-0.463324,-0.362704 -0.142561,-0.87049l0.641526,-1.088112q0.320763,-0.507786 0.784087,-0.290163l5.310409,1.632168q0.249482,0.072541 0.285123,0.290163q0.071281,0.217622 -0.071281,0.471515l-1.318692,2.575198zm-3.350191,-18.715525q-0.534605,0.03627 -0.463324,0.616597l0,0.616597l3.24327,-0.072541l0,-1.160653l-2.779946,0zm-0.356403,4.969044l3.20763,-0.03627l0,-1.015571l-3.24327,-0.072541l0.03564,1.124382zm6.878583,-5.005315l0,1.088112l3.171989,-0.072541l0.03564,-0.471515q0.071281,-0.652867 -0.498965,-0.580326l-2.708665,0.03627zm-0.106921,4.932774l3.029428,-0.03627l0.03564,-0.834219l-3.029428,-0.072541l-0.03564,0.94303z"
                    fill="currentColor" />
            </g>
            <g stroke="null" id="text8" fill="currentColor" font-family="IDPinocchio" font-size="40px">
                <path stroke="null" id="path36"
                    d="m136.842374,37.276953q0.03564,0 0.142561,-0.03627q0.071281,-0.03627 0.178202,-0.03627q0.106921,-0.03627 0.285123,-0.108811q4.134278,-1.124382 7.769591,-2.321305q-0.819728,-0.471515 -1.532534,-0.94303q-0.677166,-0.507786 -1.211771,-1.015571q-0.784087,0.580326 -1.568174,1.088112q-0.748447,0.471515 -1.496894,0.87049q-0.498965,0.253893 -0.784087,-0.253893l-0.962289,-1.704709q-0.320763,-0.507786 0.106921,-0.797949q0.784087,-0.544056 1.746376,-1.342005q0.997929,-0.797949 1.995858,-1.668438q0.997929,-0.90676 1.888937,-1.81352q0.926649,-0.90676 1.603815,-1.704709l-2.815586,0.072541q-0.285123,0 -0.498965,0.217622q-0.178202,0.181352 -0.142561,0.435245l0.106921,1.450816q0.03564,0.290163 -0.142561,0.471515q-0.178202,0.181352 -0.498965,0.181352l-3.777875,0q-0.285123,0 -0.498965,-0.181352q-0.178202,-0.181352 -0.178202,-0.471515l0.285123,-4.932774q0.03564,-0.253893 0.249482,-0.435245q0.213842,-0.181352 0.498965,-0.181352l9.337766,0l-1.10485,-1.81352q-0.178202,-0.290163 -0.071281,-0.580326q0.106921,-0.326434 0.392044,-0.507786l1.746376,-1.124382q0.285123,-0.145082 0.641526,-0.072541q0.356403,0.03627 0.605886,0.290163l3.492752,2.865361q0.427684,0.507786 0,0.94303l8.910082,-0.03627q0.285123,0 0.498965,0.181352q0.249482,0.181352 0.249482,0.471515l0.392044,4.932774q0.03564,0.290163 -0.178202,0.471515q-0.178202,0.181352 -0.463324,0.181352l-3.635313,-0.03627l1.10485,2.067413q0.142561,0.290163 0.106921,0.689138q-0.03564,0.398974 -0.392044,0.761678q-0.819728,0.834219 -1.888937,1.595897q-1.03357,0.725408 -2.280981,1.450816q1.782016,0.507786 3.457112,0.87049q1.710736,0.362704 3.136349,0.544056q0.249482,0.03627 0.463324,0.072541q0.249482,0 0.427684,0.03627q0.213842,0.03627 0.392044,0.03627q0.570245,0.108811 0.463324,0.689138l-0.997929,3.373147q-0.142561,0.580326 -0.748447,0.471515q-0.106921,0 -0.249482,-0.03627q-0.106921,-0.03627 -0.285123,-0.072541q-0.178202,-0.03627 -0.356403,-0.108811l-1.14049,-0.290163q0.03564,0.108811 0.03564,0.290163l-0.534605,8.160839q-0.03564,0.290163 -0.285123,0.507786q-0.213842,0.217622 -0.498965,0.217622l-16.893515,0q-0.320763,0 -0.534605,-0.217622q-0.213842,-0.217622 -0.249482,-0.507786l-0.534605,-7.616783l0,-0.217622q-0.178202,0.072541 -0.392044,0.145082q-0.178202,0.03627 -0.356403,0.108811q-0.178202,0.072541 -0.320763,0.145082q-0.142561,0.03627 -0.249482,0.072541q-0.142561,0.072541 -0.249482,0.072541q-0.249482,0.072541 -0.498965,-0.03627q-0.249482,-0.108811 -0.320763,-0.362704l-1.247411,-3.119254q-0.106921,-0.253893 -0.03564,-0.471515q0.106921,-0.253893 0.392044,-0.326434zm17.927085,8.813706q0.285123,-0.03627 0.498965,-0.253893q0.213842,-0.217622 0.213842,-0.507786l0.03564,-1.559627q0,-0.290163 -0.213842,-0.507786q-0.178202,-0.217622 -0.498965,-0.181352l-9.80109,0.652867q-0.285123,0 -0.498965,0.253893q-0.213842,0.217622 -0.213842,0.507786l-0.071281,1.559627q0,0.290163 0.213842,0.507786q0.213842,0.217622 0.498965,0.181352l9.836731,-0.652867zm-6.700382,-19.295851q0.392044,0.398974 0.071281,0.834219l-0.106921,0.145082l9.052643,-0.217622q0.463324,0 0.641526,0.072541l0.213842,-1.84979q0.071281,-0.253893 -0.106921,-0.435245q-0.178202,-0.181352 -0.463324,-0.181352l-10.8703,0.290163l1.568174,1.342005zm10.157493,13.274965q-1.817657,-0.544056 -3.884796,-1.269464q-2.067139,-0.725408 -4.098638,-1.559627q-2.102779,0.94303 -4.241199,1.740979q-2.13842,0.797949 -4.169918,1.523357l16.394551,-0.435245zm-12.260273,-8.487273q1.639455,0.797949 3.706594,1.559627q1.746376,-0.725408 3.065068,-1.414545q1.318692,-0.725408 2.067139,-1.414545l-8.838801,1.269464zm-1.14049,-0.652867l0.03564,0l-0.03564,0z"
                    fill="currentColor" />
            </g>
            <path stroke="currentColor" id="line10" d="m9.25,38.297057l0,-28.109557" stroke-width="2" />
            <path stroke="currentColor" id="line12" d="m9.25,11.09426l26.730246,0" stroke-width="2" />
            <path stroke="currentColor" id="line14" d="m172.750004,30.702943l0,28.109557" stroke-width="2" />
            <path stroke="currentColor" id="line16" d="m172.750004,57.905741l-26.730246,0" stroke-width="2" />
        </g>
    </g>
</svg>